<svg width="169" height="94" viewBox="0 0 169 94" fill="none" xmlns="http://www.w3.org/2000/svg">
<circle cx="47" cy="47" r="47" fill="#0000FF"/>
<circle cx="47.5" cy="47.5" r="29.5" fill="#BDBDFF"/>
<line x1="47" y1="37" x2="108" y2="37" stroke="#D6D6D6" stroke-width="2"/>
<line x1="56" y1="46" x2="117" y2="46" stroke="#D6D6D6" stroke-width="2"/>
<line x1="40" y1="54" x2="101" y2="54" stroke="#D6D6D6" stroke-width="2"/>
<path d="M109.601 81V63.2083H113.287V77.7467H123.021V81H109.601ZM129.552 81.2288C128.603 81.2288 127.764 81.0593 127.035 80.7204C126.307 80.3646 125.739 79.8817 125.332 79.2717C124.926 78.6617 124.722 77.9585 124.722 77.1621C124.722 75.8912 125.197 74.9085 126.146 74.2137C127.112 73.5021 128.433 73.1462 130.111 73.1462C131.263 73.1462 132.347 73.3242 133.364 73.68V72.7142C133.364 71.9517 133.127 71.3756 132.652 70.9858C132.178 70.5961 131.483 70.4012 130.568 70.4012C130.009 70.4012 129.408 70.4944 128.764 70.6808C128.12 70.8503 127.374 71.1214 126.527 71.4942L125.256 68.9271C126.307 68.4526 127.306 68.0968 128.255 67.8596C129.221 67.6224 130.187 67.5037 131.153 67.5037C132.932 67.5037 134.313 67.9358 135.296 68.8C136.295 69.6472 136.795 70.8503 136.795 72.4092V81H133.364V80.0596C132.822 80.4663 132.237 80.7628 131.61 80.9492C130.983 81.1356 130.297 81.2288 129.552 81.2288ZM128.027 77.0858C128.027 77.5942 128.247 78.0008 128.687 78.3058C129.128 78.5939 129.713 78.7379 130.441 78.7379C131.017 78.7379 131.551 78.6701 132.042 78.5346C132.534 78.3821 132.974 78.1618 133.364 77.8737V75.9421C132.94 75.7726 132.5 75.6456 132.042 75.5608C131.585 75.4761 131.093 75.4337 130.568 75.4337C129.772 75.4337 129.145 75.5862 128.687 75.8913C128.247 76.1793 128.027 76.5775 128.027 77.0858ZM139.431 81V63.2083L142.913 62.6237V68.8254C143.963 67.9951 145.2 67.58 146.624 67.58C147.877 67.58 149.013 67.885 150.029 68.495C151.046 69.105 151.851 69.9268 152.444 70.9604C153.054 71.9771 153.359 73.1208 153.359 74.3917C153.359 75.6625 153.054 76.8147 152.444 77.8483C151.834 78.865 151.012 79.6783 149.979 80.2883C148.945 80.8814 147.793 81.1779 146.522 81.1779C145.861 81.1779 145.217 81.0847 144.59 80.8983C143.963 80.7119 143.387 80.4408 142.862 80.085V81H139.431ZM146.064 78.2296C146.793 78.2296 147.445 78.0601 148.022 77.7212C148.615 77.3824 149.081 76.9249 149.419 76.3487C149.758 75.7726 149.928 75.1203 149.928 74.3917C149.928 73.6631 149.758 73.0107 149.419 72.4346C149.081 71.8415 148.615 71.384 148.022 71.0621C147.445 70.7232 146.793 70.5537 146.064 70.5537C145.421 70.5537 144.827 70.6639 144.285 70.8842C143.76 71.0875 143.302 71.401 142.913 71.8246V76.9842C143.286 77.3739 143.743 77.6789 144.285 77.8992C144.844 78.1194 145.437 78.2296 146.064 78.2296ZM160.421 81.2542C159.201 81.2542 158.074 81.1017 157.041 80.7967C156.007 80.4747 155.109 80.0172 154.347 79.4242L156.075 77.1112C156.838 77.6196 157.566 78.0008 158.261 78.255C158.973 78.5092 159.676 78.6363 160.37 78.6363C161.15 78.6363 161.768 78.5092 162.226 78.255C162.7 77.9839 162.938 77.6365 162.938 77.2129C162.938 76.874 162.802 76.6029 162.531 76.3996C162.277 76.1962 161.862 76.0522 161.285 75.9675L158.744 75.5862C157.422 75.3829 156.422 74.9593 155.745 74.3154C155.067 73.6546 154.728 72.7904 154.728 71.7229C154.728 70.8588 154.948 70.1217 155.389 69.5117C155.846 68.8847 156.482 68.4018 157.295 68.0629C158.125 67.7071 159.108 67.5292 160.243 67.5292C161.209 67.5292 162.15 67.6647 163.065 67.9358C163.997 68.2069 164.869 68.6221 165.683 69.1812L164.005 71.4433C163.276 70.9858 162.582 70.6554 161.921 70.4521C161.26 70.2487 160.591 70.1471 159.913 70.1471C159.286 70.1471 158.778 70.2657 158.388 70.5029C158.015 70.7401 157.829 71.0536 157.829 71.4433C157.829 71.7992 157.964 72.0787 158.235 72.2821C158.507 72.4854 158.973 72.6294 159.633 72.7142L162.15 73.0954C163.471 73.2818 164.479 73.7054 165.174 74.3662C165.869 75.0101 166.216 75.8489 166.216 76.8825C166.216 77.7297 165.962 78.4837 165.454 79.1446C164.945 79.7885 164.259 80.3053 163.395 80.695C162.531 81.0678 161.54 81.2542 160.421 81.2542Z" fill="#A0A0A0"/>
</svg>
